<svg width="800" height="800" viewBox="0 0 800 800" fill="none" xmlns="http://www.w3.org/2000/svg">
<g clip-path="url(#clip0_1_17)">
<circle cx="400" cy="400" r="400" fill="#1A2C43"/>
<path d="M410 403L249 218H351.5L504.5 403L351.5 582.5H249L410 403Z" fill="#FD9955"/>
<path d="M495.912 215L496.812 216.088L649.812 401.088L651.417 403.029L649.783 404.946L496.783 584.446L495.885 585.5H385.279L389.767 580.497L548.996 402.97L389.737 219.97L385.412 215H495.912Z" fill="#29BEF2" stroke="#29BEF2" stroke-width="6"/>
<path d="M319.476 449.5L315.763 453.664L288.122 484.664L287.376 485.5H169.999L169.423 485.17C164.782 482.517 158.755 477.489 156.935 471.003C155.991 467.635 156.211 463.955 158.23 460.255C160.211 456.625 163.832 453.139 169.389 449.849L169.978 449.5H319.476Z" fill="#29BEF2" stroke="#29BEF2" stroke-width="5"/>
<path d="M361.07 405.5L359.783 403.878L335.173 372.878L334.873 372.5H231.182L230.936 372.658C226.885 375.259 221.899 380.037 220.427 385.93C219.682 388.912 219.845 392.159 221.461 395.484C223.068 398.792 226.08 402.113 230.922 405.333L231.173 405.5H361.07Z" fill="#29BEF2" stroke="#29BEF2" stroke-width="2"/>
<path d="M295.177 329L291.958 324.945L267.348 293.945L266.598 293H161.742L161.125 293.396C156.927 296.092 151.576 301.141 149.971 307.566C149.146 310.868 149.332 314.478 151.111 318.14C152.869 321.757 156.101 325.263 161.091 328.582L161.72 329H295.177Z" fill="#29BEF2" stroke="#29BEF2" stroke-width="5"/>
</g>
<defs>
<clipPath id="clip0_1_17">
<rect width="800" height="800" fill="white"/>
</clipPath>
</defs>
</svg>
