<?xml version="1.0" encoding="UTF-8"?>
<svg version="1.1" xmlns="http://www.w3.org/2000/svg" width="512" height="512">
<path d="M0 0 C8.36542492 4.98827189 13.49745217 11.86380031 16.109375 21.2578125 C16.39632998 24.24292446 16.40006727 27.21243275 16.39648438 30.2097168 C16.40331741 31.09025223 16.41015045 31.97078766 16.41719055 32.87800598 C16.43074049 34.78331148 16.43981816 36.68865296 16.44490051 38.59399986 C16.45322365 41.61787262 16.47376289 44.64144829 16.49743652 47.66523743 C16.54558278 54.09188468 16.57853658 60.51856197 16.609375 66.9453125 C16.64515357 74.37931884 16.68729425 81.81318052 16.74531555 89.24704933 C16.76523115 92.21091844 16.77367404 95.17467387 16.78161621 98.13859558 C16.7240548 117.38207827 16.7240548 117.38207827 25.109375 134.2578125 C33.33882015 142.31722779 43.21688914 144.36843998 54.46802425 144.3964777 C55.70811684 144.40195214 56.94820942 144.40742659 58.22588056 144.41306692 C59.58873293 144.41414291 60.95158537 144.41512765 62.31443787 144.41603088 C63.77241035 144.42060052 65.23038154 144.42560113 66.68835121 144.43099445 C70.68588691 144.44453926 74.68341413 144.45198329 78.68096673 144.45842111 C82.99514084 144.46644116 87.30929741 144.4801334 91.62345886 144.49313354 C99.09511705 144.51487354 106.56677704 144.53302707 114.03845024 144.54873848 C124.84120988 144.57145967 135.64395007 144.59959938 146.44669319 144.62905776 C163.97381226 144.67670609 181.50093928 144.71997775 199.02807617 144.76049805 C216.05314758 144.79986701 233.07821191 144.8412966 250.10327148 144.88549805 C251.67764655 144.88958446 251.67764655 144.88958446 253.28382718 144.89375342 C258.54932591 144.90743313 263.81482453 144.92115335 269.0803231 144.93489373 C312.75665899 145.04881516 356.43301017 145.1556341 400.109375 145.2578125 C400.10568783 144.64858255 400.10200066 144.03935261 400.09820175 143.41166115 C400.00967327 128.55375282 399.94357936 113.69587012 399.90212631 98.83776283 C399.88154449 91.65232466 399.85350842 84.46706307 399.80761719 77.28173828 C399.76761443 71.01537494 399.74191038 64.74913956 399.73302102 58.48265207 C399.72782878 55.16779409 399.71358547 51.85338513 399.68645477 48.53862381 C399.65730275 44.82842811 399.65342411 41.11898371 399.65527344 37.40869141 C399.64089233 36.32255554 399.62651123 35.23641968 399.61169434 34.11737061 C399.66187323 24.77775525 401.92311818 16.73059758 408.40625 9.7890625 C416.62981385 2.39539959 425.34383135 0.67591183 436.12109375 0.9453125 C444.50678831 1.41963885 451.512312 5.03250773 457.109375 11.2578125 C461.96319678 17.71236274 464.35325628 23.82806913 464.37680054 31.98626709 C464.38133165 32.63770636 464.38586276 33.28914563 464.39053118 33.96032548 C464.40312795 36.1295482 464.40155791 38.29851833 464.39990234 40.46777344 C464.40589063 42.02877116 464.41269687 43.58976593 464.42025757 45.15075684 C464.43789609 49.38235888 464.44261209 53.61387999 464.44388914 57.84551525 C464.44531273 60.49262262 464.44958632 63.13970955 464.45488358 65.78681183 C464.4733781 75.0313904 464.48155508 84.27591136 464.47998047 93.52050781 C464.47877984 102.12175873 464.49986808 110.72275839 464.5314678 119.32394576 C464.55767058 126.72120136 464.56834606 134.11837512 464.56706965 141.51567674 C464.56656111 145.92805968 464.57218409 150.34021935 464.59342575 154.75255585 C464.61287529 158.90593184 464.61288712 163.05887315 464.59839249 167.21226501 C464.59631145 168.7303303 464.600963 170.24842326 464.6131134 171.76644135 C464.69579065 182.8180625 463.6429838 192.34240813 455.8125 200.7265625 C449.13979044 206.72587936 442.0686622 209.50471456 433.07792187 209.51508141 C432.04695741 209.52034052 432.04695741 209.52034052 430.99516538 209.52570587 C428.69300015 209.53500673 426.39108862 209.53009997 424.08891296 209.52523804 C422.42117937 209.52897501 420.75344752 209.53357672 419.08571845 209.53896868 C414.50303594 209.55120924 409.92042638 209.55093694 405.33773124 209.54857993 C400.39471362 209.54817201 395.45171947 209.55920889 390.50871277 209.56869507 C380.82229144 209.58531406 371.13589445 209.59080511 361.44946005 209.59191982 C353.57169373 209.59287029 345.69393543 209.59698054 337.81617165 209.60332108 C315.4706962 209.62093937 293.12523996 209.63015954 270.77975752 209.62866013 C269.57489604 209.62858022 268.37003455 209.6285003 267.12866211 209.62841797 C265.9223248 209.62833621 264.71598749 209.62825445 263.4730945 209.62817021 C243.94308441 209.62735812 224.41315159 209.64647465 204.88316383 209.6746947 C184.81951612 209.70345637 164.75590604 209.71723305 144.6922372 209.71550715 C133.43243799 209.71484417 122.17271968 209.72029557 110.91293907 209.74186325 C101.32088483 209.7601187 91.72894813 209.76438696 82.136884 209.7508444 C77.24768563 209.7443355 72.35871247 209.74412181 67.46953583 209.7615509 C62.98270663 209.77738017 58.49627934 209.77431845 54.00945935 209.75698264 C52.39696283 209.75393416 50.78443557 209.75746268 49.17197534 209.76870279 C22.16753235 209.94428816 -1.56370182 200.29817504 -20.890625 181.2578125 C-40.73666434 161.44490511 -48.37288725 136.81320009 -48.44641113 109.42689514 C-48.4392532 107.20516615 -48.43104968 104.98344032 -48.421875 102.76171875 C-48.42457645 100.43342426 -48.42846428 98.10513088 -48.43347168 95.77684021 C-48.43932776 90.92997347 -48.43092466 86.08340411 -48.41210938 81.23657227 C-48.38923278 75.04426674 -48.40252314 68.85265157 -48.42639923 62.66037083 C-48.44088647 57.86550231 -48.43623925 53.07079632 -48.42588806 48.27592278 C-48.42323352 45.99270481 -48.42644536 43.70947176 -48.43580627 41.42627144 C-48.4460301 38.23503832 -48.43039257 35.04491104 -48.40820312 31.85375977 C-48.41630005 30.925242 -48.42439697 29.99672424 -48.43273926 29.04006958 C-48.31955072 20.1983776 -45.69751656 12.32440851 -39.59375 5.7890625 C-28.99673947 -3.73852495 -12.95346121 -6.21592266 0 0 Z " fill="#2F2F2F" transform="translate(47.890625,302.7421875)"/>
<path d="M0 0 C11.97327405 7.4217836 22.0379552 19.88898471 31.95252991 29.77998352 C33.16782474 30.99103728 33.16782474 30.99103728 34.40767097 32.22655678 C38.68254731 36.48655982 42.95463291 40.74933715 47.22425842 45.01460266 C51.61760728 49.40243659 56.02018502 53.78088897 60.42491817 58.15729046 C63.83151337 61.54524083 67.23136156 64.9399012 70.6294117 68.33642006 C72.24996371 69.95395702 73.87300269 71.56900654 75.4986248 73.18144798 C77.7689974 75.43469693 80.02964083 77.69729788 82.28822327 79.96235657 C82.95269974 80.61761826 83.61717621 81.27287994 84.30178833 81.94799805 C93.00563117 90.72994849 96.97006633 99.01422953 96.91590881 111.46333313 C96.70379115 119.94901249 94.08887831 126.80133175 88.25331116 133.04951477 C80.02843269 140.44435963 71.30206891 142.18530645 60.51893616 141.87373352 C45.17129245 140.74078738 35.87457069 127.92711343 25.64784241 117.68623352 C24.47517822 116.51272339 24.47517822 116.51272339 23.27882385 115.31550598 C21.36899016 113.40421273 19.45945086 111.49262638 17.55018616 109.58076477 C17.5487196 110.84967245 17.54725304 112.11858013 17.54574203 113.42593956 C17.51001663 143.56780009 17.45374171 173.70954618 17.3722652 203.85131451 C17.36224811 207.56370248 17.35240392 211.2760909 17.34266663 214.98847961 C17.33975457 216.09705365 17.33975457 216.09705365 17.33678368 217.22802313 C17.30578824 229.18433694 17.2887899 241.14063158 17.27699193 253.09697799 C17.26456762 265.37127559 17.23703739 277.64547276 17.19557309 289.91970694 C17.17047422 297.48960258 17.15706623 305.0593316 17.15875658 312.62926944 C17.15878994 318.44032265 17.13777525 324.25115494 17.10901833 330.06212997 C17.10051272 332.44127456 17.09877385 334.82045467 17.10438347 337.19960785 C17.11103457 340.45450078 17.09307472 343.70838873 17.06916809 346.96318054 C17.07692851 347.8990073 17.08468893 348.83483407 17.09268451 349.79901922 C16.97815704 358.64092658 14.35751156 366.51370424 8.25331116 373.04951477 C0.02974731 380.44317768 -8.68427019 382.16266544 -19.46153259 381.89326477 C-27.84722715 381.41893842 -34.85275084 377.80606954 -40.44981384 371.58076477 C-46.23889474 363.88251889 -47.74766368 356.93347335 -47.72828674 347.44419861 C-47.73407915 346.42635107 -47.73987155 345.40850354 -47.74583948 344.35981214 C-47.76283688 340.95117174 -47.7657158 337.54266677 -47.7686615 334.13398743 C-47.77795984 331.68978036 -47.78812837 329.24557646 -47.79910278 326.80137634 C-47.82076712 321.54018131 -47.83637936 316.27902168 -47.84646988 311.01779556 C-47.86106946 303.41100154 -47.88660985 295.80427502 -47.91480117 288.19752066 C-47.96024593 275.85539727 -47.9968703 263.51326414 -48.02793884 251.1710968 C-48.05813387 239.18344921 -48.09248852 227.19582542 -48.13243103 215.20820618 C-48.13489258 214.46900761 -48.13735413 213.72980905 -48.13989027 212.96821053 C-48.15226506 209.25978444 -48.16472155 205.55135862 -48.17721868 201.84293294 C-48.2807518 171.08890918 -48.36981937 140.33485919 -48.44981384 109.58076477 C-49.16524353 110.31190491 -49.88067322 111.04304504 -50.61778259 111.79634094 C-53.30116013 114.53445514 -55.99481216 117.26227094 -58.69151306 119.98725891 C-59.8521717 121.16290523 -61.01011181 122.34124241 -62.16514587 123.52241516 C-79.91467708 141.66314174 -79.91467708 141.66314174 -93.15904236 141.96113586 C-103.23655288 141.93461293 -111.29228737 140.40654422 -118.91856384 133.28388977 C-126.3134087 125.05901131 -128.05435552 116.33264753 -127.74278259 105.54951477 C-126.42543837 87.70389172 -107.14692305 74.10310473 -95.25059509 62.17842102 C-94.44322592 61.36822447 -93.63585674 60.55802792 -92.80402184 59.72327995 C-88.5440188 55.44840362 -84.28124146 51.17631802 -80.01597595 46.9066925 C-75.62814202 42.51334365 -71.24968965 38.1107659 -66.87328815 33.70603275 C-63.48533778 30.29943756 -60.09067741 26.89958937 -56.69415855 23.50153923 C-55.07662159 21.88098722 -53.46157207 20.25794824 -51.84913063 18.63232613 C-49.59588168 16.36195353 -47.33328073 14.1013101 -45.06822205 11.84272766 C-44.41296036 11.17825119 -43.75769867 10.51377472 -43.08258057 9.8291626 C-31.91230968 -1.2417587 -15.15001427 -7.62203337 0 0 Z " fill="#00A8FF" transform="translate(271.44981384277344,2.4192352294921875)"/>
</svg>
